<svg width="464" height="129" viewBox="0 0 464 129" fill="none" xmlns="http://www.w3.org/2000/svg">
<path d="M20.9999 57.5C20.9999 44.1065 26.3205 31.2617 35.7911 21.7911C45.2616 12.3205 58.1065 6.99996 71.5 6.99996C84.8934 6.99996 97.7383 12.3205 107.209 21.7911C116.679 31.2617 122 44.1065 122 57.5L71.5 57.5L20.9999 57.5Z" fill="white"/>
<g filter="url(#filter0_f_272_792)">
<path d="M119.837 42.8802C122.119 50.4234 122.603 58.396 121.252 66.16C119.9 73.924 116.751 81.264 112.055 87.5927C107.359 93.9214 101.246 99.0632 94.2073 102.607C87.1682 106.15 79.3975 107.997 71.5167 108C63.636 108.003 55.864 106.161 48.8225 102.622C41.7811 99.083 35.6656 93.9452 30.9653 87.6196C26.265 81.294 23.1104 73.9561 21.7538 66.193C20.3972 58.4299 20.8763 50.457 23.1528 42.9123L71.5 57.5L119.837 42.8802Z" fill="white" fill-opacity="0.57"/>
</g>
<path d="M195.728 60.664V91H184.016V63.736C184.016 61.848 183.552 60.136 182.624 58.6C181.696 57.032 180.448 55.8 178.88 54.904C177.344 53.976 175.632 53.512 173.744 53.512C171.856 53.512 170.128 53.976 168.56 54.904C167.024 55.8 165.792 57.032 164.864 58.6C163.968 60.136 163.52 61.848 163.52 63.736V91H151.808L151.76 19H163.472L163.52 47.272C165.152 45.544 167.104 44.184 169.376 43.192C171.648 42.168 174.096 41.656 176.72 41.656C180.208 41.656 183.392 42.52 186.272 44.248C189.152 45.944 191.44 48.232 193.136 51.112C194.864 53.96 195.728 57.144 195.728 60.664ZM225.474 92.248C221.058 92.248 217.026 91.112 213.378 88.84C209.762 86.568 206.866 83.528 204.69 79.72C202.546 75.88 201.474 71.64 201.474 67C201.474 63.48 202.098 60.2 203.346 57.16C204.594 54.088 206.306 51.4 208.482 49.096C210.69 46.76 213.25 44.936 216.162 43.624C219.074 42.312 222.178 41.656 225.474 41.656C229.89 41.656 233.906 42.792 237.522 45.064C241.17 47.336 244.066 50.392 246.21 54.232C248.386 58.072 249.474 62.328 249.474 67C249.474 70.488 248.85 73.752 247.602 76.792C246.354 79.832 244.626 82.52 242.418 84.856C240.242 87.16 237.698 88.968 234.786 90.28C231.906 91.592 228.802 92.248 225.474 92.248ZM225.474 80.536C227.81 80.536 229.906 79.912 231.762 78.664C233.618 77.416 235.074 75.768 236.13 73.72C237.218 71.672 237.762 69.432 237.762 67C237.762 64.504 237.202 62.232 236.082 60.184C234.994 58.104 233.506 56.456 231.618 55.24C229.762 53.992 227.714 53.368 225.474 53.368C223.17 53.368 221.09 53.992 219.234 55.24C217.378 56.488 215.906 58.152 214.818 60.232C213.73 62.312 213.186 64.568 213.186 67C213.186 69.528 213.746 71.816 214.866 73.864C215.986 75.912 217.474 77.544 219.33 78.76C221.218 79.944 223.266 80.536 225.474 80.536ZM256.996 91L256.948 43H268.66L268.708 47.272C270.34 45.544 272.292 44.184 274.564 43.192C276.836 42.168 279.284 41.656 281.908 41.656C283.668 41.656 285.428 41.912 287.188 42.424L282.58 54.232C281.364 53.752 280.148 53.512 278.932 53.512C277.044 53.512 275.316 53.976 273.748 54.904C272.212 55.8 270.98 57.032 270.052 58.6C269.156 60.136 268.708 61.848 268.708 63.736V91H256.996ZM292.385 43H304.097V91H292.385V43ZM298.337 36.808C296.609 36.808 295.153 36.248 293.969 35.128C292.785 33.976 292.193 32.536 292.193 30.808C292.193 29.112 292.785 27.688 293.969 26.536C295.153 25.384 296.593 24.808 298.289 24.808C299.985 24.808 301.409 25.384 302.561 26.536C303.745 27.688 304.337 29.112 304.337 30.808C304.337 32.536 303.761 33.976 302.609 35.128C301.457 36.248 300.033 36.808 298.337 36.808ZM354.707 54.712L330.563 79.288H354.707V91H313.715V79.288L337.859 54.712H313.715V43H354.707V54.712ZM384.286 92.248C379.87 92.248 375.838 91.112 372.19 88.84C368.574 86.568 365.678 83.528 363.502 79.72C361.358 75.88 360.286 71.64 360.286 67C360.286 63.48 360.91 60.2 362.158 57.16C363.406 54.088 365.118 51.4 367.294 49.096C369.502 46.76 372.062 44.936 374.974 43.624C377.886 42.312 380.99 41.656 384.286 41.656C388.702 41.656 392.718 42.792 396.334 45.064C399.982 47.336 402.878 50.392 405.022 54.232C407.198 58.072 408.286 62.328 408.286 67C408.286 70.488 407.662 73.752 406.414 76.792C405.166 79.832 403.438 82.52 401.23 84.856C399.054 87.16 396.51 88.968 393.598 90.28C390.718 91.592 387.614 92.248 384.286 92.248ZM384.286 80.536C386.622 80.536 388.718 79.912 390.574 78.664C392.43 77.416 393.886 75.768 394.942 73.72C396.03 71.672 396.574 69.432 396.574 67C396.574 64.504 396.014 62.232 394.894 60.184C393.806 58.104 392.318 56.456 390.43 55.24C388.574 53.992 386.526 53.368 384.286 53.368C381.982 53.368 379.902 53.992 378.046 55.24C376.19 56.488 374.718 58.152 373.63 60.232C372.542 62.312 371.998 64.568 371.998 67C371.998 69.528 372.558 71.816 373.678 73.864C374.798 75.912 376.286 77.544 378.142 78.76C380.03 79.944 382.078 80.536 384.286 80.536ZM459.728 60.664V91H448.016V63.736C448.016 61.848 447.552 60.136 446.624 58.6C445.696 57.032 444.448 55.8 442.88 54.904C441.344 53.976 439.632 53.512 437.744 53.512C435.856 53.512 434.128 53.976 432.56 54.904C431.024 55.8 429.792 57.032 428.864 58.6C427.968 60.136 427.52 61.848 427.52 63.736V91H415.808L415.76 43H427.472L427.52 47.272C429.152 45.544 431.104 44.184 433.376 43.192C435.648 42.168 438.096 41.656 440.72 41.656C444.208 41.656 447.392 42.52 450.272 44.248C453.152 45.944 455.44 48.232 457.136 51.112C458.864 53.96 459.728 57.144 459.728 60.664Z" fill="white"/>
<defs>
<filter id="filter0_f_272_792" x="0.10956" y="21.9899" width="142.781" height="106.901" filterUnits="userSpaceOnUse" color-interpolation-filters="sRGB">
<feFlood flood-opacity="0" result="BackgroundImageFix"/>
<feBlend mode="normal" in="SourceGraphic" in2="BackgroundImageFix" result="shape"/>
<feGaussianBlur stdDeviation="10.4452" result="effect1_foregroundBlur_272_792"/>
</filter>
</defs>
</svg>
