<svg width="148" height="39" viewBox="0 0 148 39" fill="none" xmlns="http://www.w3.org/2000/svg">
<path d="M13.56 34.4C11.64 34.4 9.86667 34.16 8.24 33.68C6.61333 33.1733 5.2 32.4533 4 31.52L6.72 27.88C7.92 28.68 9.06667 29.28 10.16 29.68C11.28 30.08 12.3867 30.28 13.48 30.28C14.7067 30.28 15.68 30.08 16.4 29.68C17.1467 29.2533 17.52 28.7067 17.52 28.04C17.52 27.5067 17.3067 27.08 16.88 26.76C16.48 26.44 15.8267 26.2133 14.92 26.08L10.92 25.48C8.84 25.16 7.26667 24.4933 6.2 23.48C5.13333 22.44 4.6 21.08 4.6 19.4C4.6 18.04 4.94667 16.88 5.64 15.92C6.36 14.9333 7.36 14.1733 8.64 13.64C9.94667 13.08 11.4933 12.8 13.28 12.8C14.8 12.8 16.28 13.0133 17.72 13.44C19.1867 13.8667 20.56 14.52 21.84 15.4L19.2 18.96C18.0533 18.24 16.96 17.72 15.92 17.4C14.88 17.08 13.8267 16.92 12.76 16.92C11.7733 16.92 10.9733 17.1067 10.36 17.48C9.77333 17.8533 9.48 18.3467 9.48 18.96C9.48 19.52 9.69333 19.96 10.12 20.28C10.5467 20.6 11.28 20.8267 12.32 20.96L16.28 21.56C18.36 21.8533 19.9467 22.52 21.04 23.56C22.1333 24.5733 22.68 25.8933 22.68 27.52C22.68 28.8533 22.28 30.04 21.48 31.08C20.68 32.0933 19.6 32.9067 18.24 33.52C16.88 34.1067 15.32 34.4 13.56 34.4Z" fill="black"/>
<path d="M43.5084 34H37.8884L33.3284 26.14L30.5284 29.48V34H25.6484V4H30.5284V21.9L37.1484 14H43.5284L36.6684 22.18L43.5084 34Z" fill="black"/>
<path d="M65.3747 21.36V34H60.4947V22.64C60.4947 21.8533 60.3014 21.14 59.9147 20.5C59.528 19.8467 59.008 19.3333 58.3547 18.96C57.7147 18.5733 57.0014 18.38 56.2147 18.38C55.428 18.38 54.708 18.5733 54.0547 18.96C53.4147 19.3333 52.9014 19.8467 52.5147 20.5C52.1414 21.14 51.9547 21.8533 51.9547 22.64V34H47.0747L47.0547 14H51.9347L51.9547 15.78C52.6347 15.06 53.448 14.4933 54.3947 14.08C55.3414 13.6533 56.3614 13.44 57.4547 13.44C58.908 13.44 60.2347 13.8 61.4347 14.52C62.6347 15.2267 63.588 16.18 64.2947 17.38C65.0147 18.5667 65.3747 19.8933 65.3747 21.36Z" fill="black"/>
<path d="M84.0888 4H88.9688V34H84.0888V31.5C83.4488 32.3933 82.6421 33.12 81.6688 33.68C80.6954 34.24 79.5687 34.52 78.2887 34.52C76.8354 34.52 75.4754 34.2467 74.2087 33.7C72.9421 33.1533 71.8221 32.4 70.8487 31.44C69.8887 30.4667 69.1354 29.3467 68.5888 28.08C68.0421 26.8133 67.7687 25.4533 67.7687 24C67.7687 22.5467 68.0421 21.1867 68.5888 19.92C69.1354 18.6533 69.8887 17.54 70.8487 16.58C71.8221 15.6067 72.9421 14.8467 74.2087 14.3C75.4754 13.7533 76.8354 13.48 78.2887 13.48C79.5687 13.48 80.6954 13.76 81.6688 14.32C82.6421 14.8667 83.4488 15.5933 84.0888 16.5V4ZM78.3487 29.82C79.3887 29.82 80.3087 29.56 81.1087 29.04C81.9087 28.52 82.5354 27.82 82.9888 26.94C83.4421 26.0467 83.6687 25.0667 83.6687 24C83.6687 22.92 83.4421 21.94 82.9888 21.06C82.5354 20.1667 81.9021 19.46 81.0888 18.94C80.2888 18.42 79.3754 18.16 78.3487 18.16C77.3221 18.16 76.3821 18.4267 75.5287 18.96C74.6887 19.48 74.0154 20.18 73.5088 21.06C73.0154 21.94 72.7688 22.92 72.7688 24C72.7688 25.08 73.0221 26.06 73.5287 26.94C74.0354 27.82 74.7088 28.52 75.5488 29.04C76.4021 29.56 77.3354 29.82 78.3487 29.82Z" fill="black"/>
<path d="M108.541 14H113.421V34H108.541L108.321 31.52C107.774 32.4133 107.048 33.14 106.141 33.7C105.248 34.2467 104.188 34.52 102.961 34.52C101.481 34.52 100.094 34.24 98.8009 33.68C97.5076 33.12 96.3676 32.3467 95.3809 31.36C94.4076 30.3733 93.6409 29.2333 93.0809 27.94C92.5343 26.6467 92.2609 25.26 92.2609 23.78C92.2609 22.3533 92.5209 21.0133 93.0409 19.76C93.5743 18.5067 94.3143 17.4067 95.2609 16.46C96.2076 15.5133 97.3009 14.7733 98.5409 14.24C99.7809 13.7067 101.114 13.44 102.541 13.44C103.861 13.44 105.041 13.7333 106.081 14.32C107.134 14.9067 108.028 15.6533 108.761 16.56L108.541 14ZM102.841 29.82C103.881 29.82 104.801 29.56 105.601 29.04C106.401 28.52 107.028 27.82 107.481 26.94C107.934 26.0467 108.161 25.0667 108.161 24C108.161 22.92 107.934 21.94 107.481 21.06C107.028 20.1667 106.394 19.46 105.581 18.94C104.781 18.42 103.868 18.16 102.841 18.16C101.814 18.16 100.874 18.4267 100.021 18.96C99.1809 19.48 98.5076 20.18 98.0009 21.06C97.5076 21.94 97.2609 22.92 97.2609 24C97.2609 25.08 97.5143 26.06 98.0209 26.94C98.5276 27.82 99.2009 28.52 100.041 29.04C100.894 29.56 101.828 29.82 102.841 29.82Z" fill="black"/>
<path d="M135.726 21.36V34H130.846V22.64C130.846 21.8533 130.653 21.14 130.266 20.5C129.88 19.8467 129.36 19.3333 128.706 18.96C128.066 18.5733 127.353 18.38 126.566 18.38C125.78 18.38 125.06 18.5733 124.406 18.96C123.766 19.3333 123.253 19.8467 122.866 20.5C122.493 21.14 122.306 21.8533 122.306 22.64V34H117.426L117.406 14H122.286L122.306 15.78C122.986 15.06 123.8 14.4933 124.746 14.08C125.693 13.6533 126.713 13.44 127.806 13.44C129.26 13.44 130.586 13.8 131.786 14.52C132.986 15.2267 133.94 16.18 134.646 17.38C135.366 18.5667 135.726 19.8933 135.726 21.36Z" fill="black"/>
<path d="M141.411 34.52C140.718 34.52 140.124 34.28 139.631 33.8C139.151 33.3067 138.911 32.7067 138.911 32C138.911 31.32 139.151 30.7333 139.631 30.24C140.124 29.7467 140.718 29.5 141.411 29.5C142.104 29.5 142.698 29.7467 143.191 30.24C143.684 30.7333 143.931 31.32 143.931 32C143.931 32.7067 143.684 33.3067 143.191 33.8C142.698 34.28 142.104 34.52 141.411 34.52Z" fill="black"/>
</svg>
